<?xml version="1.0" encoding="UTF-8" standalone="no"?>
<!-- Created with Inkscape (http://www.inkscape.org/) -->

<svg
   xmlns:dc="http://purl.org/dc/elements/1.1/"
   xmlns:cc="http://creativecommons.org/ns#"
   xmlns:rdf="http://www.w3.org/1999/02/22-rdf-syntax-ns#"
   xmlns:svg="http://www.w3.org/2000/svg"
   xmlns="http://www.w3.org/2000/svg"
   version="1.2"
   width="66.23468"
   height="50.000454"
   id="svg2">
  <defs
     id="defs4" />
  <metadata
     id="metadata7">
    <rdf:RDF>
      <cc:Work
         rdf:about="">
        <dc:format>image/svg+xml</dc:format>
        <dc:type
           rdf:resource="http://purl.org/dc/dcmitype/StillImage" />
        <dc:title></dc:title>
      </cc:Work>
    </rdf:RDF>
  </metadata>
  <g
     transform="translate(-10.322418,-994.36206)"
     id="layer1">
    <g
       transform="matrix(0.1618317,0,0,0.1618317,-2.5684884,969.06546)"
       id="g3811">
      <path
         d="m 481.42856,296.64789 a 197.14285,65.714287 0 1 1 -394.285707,0 197.14285,65.714287 0 1 1 394.285707,0 z"
         transform="matrix(0.70710678,0.70710678,-0.70710678,0.70710678,293.02709,-99.9909)"
         id="path2985-1"
         style="fill:none;stroke:#56b356;stroke-width:15;stroke-linecap:butt;stroke-linejoin:miter;stroke-miterlimit:4;stroke-opacity:1;stroke-dasharray:none" />
      <path
         d="m 481.42856,296.64789 a 197.14285,65.714287 0 1 1 -394.285707,0 197.14285,65.714287 0 1 1 394.285707,0 z"
         transform="translate(0,14.143295)"
         id="path2985"
         style="fill:none;stroke:#057f84;stroke-width:15;stroke-linecap:butt;stroke-linejoin:miter;stroke-miterlimit:4;stroke-opacity:1;stroke-dasharray:none" />
      <path
         d="m 481.42856,296.64789 a 197.14285,65.714287 0 1 1 -394.285707,0 197.14285,65.714287 0 1 1 394.285707,0 z"
         transform="matrix(0.70710678,-0.70710678,0.70710678,0.70710678,-126.49638,302.0498)"
         id="path2985-4"
         style="fill:none;stroke:#56b356;stroke-width:15;stroke-linecap:butt;stroke-linejoin:miter;stroke-miterlimit:4;stroke-opacity:1;stroke-dasharray:none" />
    </g>
    <flowRoot
       id="flowRoot3816"
       xml:space="preserve"
       style="font-size:40px;font-style:normal;font-weight:normal;line-height:125%;letter-spacing:0px;word-spacing:0px;fill:#000000;fill-opacity:1;stroke:none;font-family:Sans"><flowRegion
         id="flowRegion3818"><rect
           width="770"
           height="302.85715"
           x="21.428572"
           y="156.6479"
           id="rect3820" /></flowRegion><flowPara
         id="flowPara3822"></flowPara></flowRoot>  </g>
</svg>
